<svg width="418" height="418" viewBox="0 0 418 418" fill="none" xmlns="http://www.w3.org/2000/svg">
<g clip-path="url(#clip0)">
<path d="M107.489 131.54C104.17 131.54 101.125 129.461 99.9027 126.379C98.6503 123.219 99.5427 119.482 102.105 117.239C104.703 114.966 108.579 114.58 111.568 116.311C114.56 118.043 116.18 121.576 115.497 124.976C114.74 128.746 111.333 131.54 107.489 131.54Z" fill="#84DCC6"/>
<path d="M256.695 299.181C253.284 299.181 250.169 296.987 249.011 293.781C247.887 290.667 248.805 287.057 251.309 284.88C253.966 282.571 257.86 282.229 260.885 284.02C263.711 285.694 265.28 289.055 264.756 292.296C264.125 296.204 260.661 299.181 256.695 299.181Z" fill="#84DCC6"/>
<path d="M416.71 60.6908C415.601 57.6987 412.848 55.6274 409.665 55.3899L365.157 52.0606L361.828 7.55589C361.59 4.37355 359.52 1.62145 356.528 0.511137C353.534 -0.599989 350.171 0.135591 347.914 2.39213L312.338 37.967C306.445 43.859 303.033 51.6899 302.729 60.0181C302.723 60.1658 302.721 60.3136 302.724 60.4614L303.209 87.7195C271.3 61.9154 230.709 46.4429 186.57 46.4429C84.1255 46.4429 0.78125 129.783 0.78125 232.222C0.78125 334.661 84.1255 418.002 186.57 418.002C289.014 418.002 372.357 334.661 372.357 232.222C372.357 187.377 356.384 146.193 329.83 114.058L356.771 114.493C356.815 114.494 356.859 114.494 356.903 114.494C357.002 114.494 357.102 114.493 357.201 114.489C365.528 114.184 373.36 110.771 379.253 104.879L414.829 69.3038C417.086 67.0473 417.82 63.6821 416.71 60.6908ZM323.884 49.5126L346.874 26.5234L349.121 56.5557L319.512 86.2108L319.054 60.414C319.253 56.2961 320.964 52.432 323.884 49.5126ZM186.57 401.672C93.1289 401.672 17.1093 325.657 17.1093 232.221C17.1093 138.785 93.128 62.7693 186.57 62.7693C229.976 62.7693 269.622 79.175 299.635 106.109L280.726 125.017C255.577 102.903 222.612 89.4756 186.57 89.4756C169.968 89.4756 153.691 92.315 138.188 97.9147C133.947 99.4463 131.751 104.126 133.283 108.367C134.815 112.608 139.492 114.806 143.735 113.272C157.453 108.317 171.865 105.804 186.57 105.804C218.11 105.804 246.989 117.414 269.16 136.583L250.219 155.523C232.938 141.158 210.745 132.509 186.57 132.509C131.586 132.509 86.8532 177.24 86.8532 232.221C86.8532 287.201 131.586 331.932 186.57 331.932C202.284 331.932 217.951 328.164 231.878 321.034C235.891 318.979 237.478 314.06 235.424 310.047C233.369 306.033 228.449 304.447 224.436 306.5C212.637 312.542 199.896 315.605 186.57 315.605C140.59 315.605 103.181 278.2 103.181 232.221C103.181 186.243 140.589 148.838 186.57 148.838C206.242 148.838 224.341 155.689 238.617 167.125L219.572 186.17C210.271 179.486 198.873 175.543 186.57 175.543C155.317 175.543 129.89 200.969 129.89 232.221C129.89 263.473 155.317 288.898 186.57 288.898C217.823 288.898 243.25 263.473 243.25 232.221C243.25 219.148 238.799 207.097 231.336 197.497L250.31 178.523C262.561 193.041 269.958 211.782 269.958 232.22C269.958 241.186 268.537 250.011 265.734 258.447C264.313 262.726 266.63 267.347 270.908 268.769C275.184 270.189 279.808 267.875 281.23 263.595C284.585 253.495 286.286 242.939 286.286 232.22C286.286 207.279 277.081 184.448 261.89 166.944L280.803 148.032C300.813 170.403 312.995 199.916 312.995 232.22C312.995 301.926 256.281 358.637 186.571 358.637C116.862 358.637 60.1453 301.927 60.1453 232.221C60.1453 205.288 68.5363 179.564 84.4113 157.829C87.0711 154.188 86.2751 149.08 82.634 146.421C78.9928 143.762 73.8854 144.557 71.2255 148.199C53.2957 172.749 43.8172 201.803 43.8172 232.221C43.8172 310.931 107.856 374.966 186.569 374.966C265.282 374.966 329.32 310.93 329.32 232.221C329.32 195.414 315.317 161.818 292.358 136.477L311.252 117.584C339.037 147.777 356.027 188.052 356.027 232.221C356.029 325.657 280.01 401.672 186.57 401.672ZM226.92 232.221C226.92 254.469 208.819 272.57 186.569 272.57C164.319 272.57 146.216 254.469 146.216 232.221C146.216 209.972 164.319 191.871 186.569 191.871C194.357 191.871 201.636 194.092 207.81 197.929L181.769 223.968C178.581 227.156 178.581 232.326 181.769 235.514C183.364 237.108 185.453 237.905 187.542 237.905C189.631 237.905 191.72 237.108 193.315 235.514L219.665 209.165C224.235 215.706 226.92 223.655 226.92 232.221ZM367.708 93.3323C364.787 96.2534 360.919 97.9637 356.798 98.1621L331.09 97.7466L346.774 82.0634C346.949 81.8887 347.112 81.7067 347.268 81.5213L360.67 68.098L390.697 70.3448L367.708 93.3323Z" fill="#84DCC6"/>
</g>
<defs>
<clipPath id="clip0">
<rect width="418" height="418" fill="white"/>
</clipPath>
</defs>
</svg>
