	<svg
		width="131"
		height="107"
		viewBox="0 0 131 107"
		fill="none"
		xmlns="http://www.w3.org/2000/svg"
	>
		<path
			d="M130.178 36.5025L126.766 30.3214C126.059 29.0419 124.496 28.6033 123.271 29.3421C122.047 30.0809 121.628 31.7173 122.334 32.9971L125.747 39.1782C125.927 39.5041 125.887 39.8145 125.847 39.9705C125.807 40.1265 125.693 40.4165 125.381 40.6046L116.358 46.0529C115.881 46.3403 115.269 46.1688 114.994 45.6705L96.8411 12.79C96.5658 12.2912 96.7298 11.6512 97.2067 11.363L106.23 5.91503C106.707 5.62766 107.319 5.79837 107.594 6.29712L110.821 12.1422C111.528 13.4222 113.092 13.8608 114.316 13.1215C115.54 12.3827 115.959 10.7463 115.252 9.46648L112.026 3.62142C110.34 0.567648 106.593 -0.483099 103.672 1.28045L94.6482 6.72871C93.2773 7.55657 92.3289 8.85937 91.8824 10.3246H66.3024C62.711 10.3246 59.3345 11.7871 56.7947 14.443L54.1738 17.184C51.8757 16.6111 49.5214 16.3165 47.1537 16.3165H39.2111C38.8142 14.7135 37.8284 13.2708 36.3522 12.3792L27.3288 6.93099C25.914 6.07664 24.2652 5.85001 22.6879 6.29203C21.1101 6.73406 19.7912 7.79257 18.9745 9.27196L0.822098 42.1528C0.00542068 43.6322 -0.211797 45.3559 0.210869 47.0063C0.633536 48.6566 1.64568 50.0357 3.06054 50.8898L12.0839 56.338C13.0446 56.9181 14.0944 57.1937 15.1314 57.1937C15.5092 57.1937 15.8851 57.1554 16.2545 57.0837L23.6399 64.8077C23.5269 65.4148 23.4683 66.0374 23.4683 66.67C23.4683 69.241 24.4257 71.6585 26.1642 73.4764C27.8287 75.2169 29.9774 76.1489 32.1611 76.2749C32.1276 76.6104 32.1094 76.9492 32.1094 77.2911C32.1094 79.8625 33.0668 82.2797 34.8053 84.0976C36.5438 85.9157 38.8552 86.917 41.3137 86.917C41.3804 86.917 41.4464 86.9135 41.513 86.9119C41.5114 86.9814 41.5081 87.0505 41.5081 87.1203C41.5081 89.6917 42.4655 92.1089 44.204 93.9268C45.9425 95.7449 48.2539 96.7461 50.7124 96.7461C50.7791 96.7461 50.8451 96.7427 50.9117 96.7411C50.9101 96.8106 50.9068 96.8796 50.9068 96.9495C50.9068 99.5206 51.8642 101.938 53.6027 103.756C55.3412 105.574 57.6526 106.575 60.1111 106.575C62.5695 106.575 64.8811 105.574 66.6194 103.756L70.2591 99.9497C71.3263 98.8337 72.0734 97.5087 72.506 96.1002C74.123 97.3482 76.0445 97.9724 77.9667 97.9721C80.3233 97.9719 82.681 97.0338 84.475 95.1573C85.5486 94.0346 86.323 92.6831 86.7595 91.2085C88.2406 92.2213 89.9707 92.766 91.7816 92.766C94.2401 92.766 96.5517 91.7648 98.29 89.9466C99.5818 88.5954 100.441 86.9135 100.798 85.0833C101.722 85.4033 102.699 85.5722 103.7 85.5722C106.159 85.5722 108.471 84.5709 110.209 82.7525C113.798 78.9993 113.798 72.8926 110.209 69.1394L104.237 62.8943L115.138 51.495C115.38 51.5252 115.623 51.5424 115.868 51.5424C116.905 51.5424 117.955 51.2668 118.916 50.6869L127.939 45.239C129.354 44.3846 130.366 43.0056 130.789 41.3552C131.212 39.7048 130.995 37.9819 130.178 36.5025ZM5.6188 46.2555C5.30717 46.0674 5.19357 45.7776 5.15366 45.6213C5.11375 45.4653 5.07358 45.1549 5.2537 44.8288L23.4061 11.9477C23.586 11.6218 23.8633 11.503 24.0125 11.4612C24.0762 11.4436 24.1667 11.4256 24.2737 11.4256C24.4177 11.4256 24.5915 11.458 24.77 11.5656L33.7934 17.0138C34.2701 17.3017 34.4343 17.9418 34.159 18.4405L16.0066 51.3214C15.7311 51.8198 15.1196 51.9916 14.6424 51.7037L5.6188 46.2555ZM28.5853 66.6697C28.5853 65.5277 29.0105 64.4545 29.7827 63.6469L31.9907 61.3378C32.7874 60.5043 33.8341 60.0877 34.881 60.0877C35.9275 60.0877 36.9744 60.5046 37.7711 61.3378C38.5433 62.1453 38.9685 63.2186 38.9685 64.3603C38.9685 65.502 38.5433 66.5755 37.7711 67.3828L35.5631 69.6919C33.9694 71.3588 31.3764 71.3586 29.7827 69.6919C29.0105 68.8849 28.5853 67.8114 28.5853 66.6697ZM41.3139 81.5656C40.2219 81.5656 39.1957 81.1209 38.4238 80.3136C37.6516 79.5063 37.2264 78.4329 37.2264 77.2911C37.2264 76.1494 37.6516 75.0759 38.4238 74.2687L42.0633 70.4625C42.86 69.6293 43.9067 69.2127 44.9534 69.2127C46.0003 69.2127 47.047 69.6293 47.8437 70.4625C48.6159 71.2697 49.0411 72.3432 49.0411 73.4849C49.0411 74.6267 48.6159 75.7002 47.8437 76.5074L44.2043 80.3136C43.4321 81.1211 42.4056 81.5656 41.3139 81.5656ZM50.7126 91.395C49.6206 91.395 48.5944 90.9503 47.8225 90.143C47.0503 89.3358 46.6251 88.2623 46.6251 87.1206C46.6251 85.9789 47.0503 84.9054 47.8225 84.0978L51.462 80.2917C52.2587 79.4584 53.3054 79.0418 54.3521 79.0418C55.3988 79.0418 56.4457 79.4584 57.2424 80.2919C58.0146 81.0992 58.4398 82.1727 58.4398 83.3144C58.4398 84.4561 58.0146 85.5296 57.2424 86.3369L53.603 90.143C52.8311 90.9503 51.8046 91.395 50.7126 91.395ZM66.6411 96.166L63.0014 99.9725C62.2295 100.78 61.2033 101.224 60.1113 101.224C59.0193 101.224 57.9931 100.78 57.2212 99.9725C56.449 99.165 56.0238 98.0917 56.0238 96.95C56.0238 95.808 56.449 94.7348 57.2212 93.9273L60.8607 90.1211C61.6574 89.2876 62.7041 88.871 63.751 88.871C64.7975 88.871 65.8444 89.2879 66.6411 90.1208C68.2348 91.7873 68.2348 94.4993 66.6411 96.166ZM106.591 78.9691C105.819 79.7766 104.793 80.2213 103.701 80.2213C102.609 80.2213 101.583 79.7766 100.811 78.9691L76.3899 53.4295C75.3908 52.3849 73.7712 52.3847 72.7713 53.4295C71.7722 54.4744 71.7722 56.1686 72.7713 57.2135L94.6722 80.1177C95.4444 80.925 95.8696 81.9985 95.8696 83.1402C95.8696 84.2819 95.4444 85.3554 94.6722 86.1629C93.9003 86.9702 92.8741 87.4149 91.7821 87.4149C90.6902 87.4149 89.6639 86.9702 88.892 86.1629L62.5749 58.6404C61.5758 57.5959 59.9557 57.5959 58.9564 58.6404C57.9573 59.6853 57.9573 61.3796 58.9564 62.4244L80.8573 85.3287C81.6294 86.1359 82.0547 87.2094 82.0547 88.3511C82.0547 89.4928 81.6294 90.5663 80.8573 91.3736C79.2638 93.0403 76.6708 93.0408 75.0768 91.3736L70.2602 86.3363C70.2535 86.3294 70.2461 86.3235 70.2394 86.3168C68.3968 84.4013 65.9662 83.4731 63.552 83.5274C63.5535 83.4565 63.5569 83.3858 63.5569 83.3144C63.5569 80.7433 62.5995 78.3258 60.861 76.5077C59.016 74.5782 56.5762 73.6436 54.153 73.6979C54.1546 73.627 54.1579 73.5564 54.1579 73.4852C54.1579 70.9139 53.2005 68.4967 51.462 66.6785C49.4444 64.5685 46.7152 63.6451 44.0748 63.9076C43.9691 61.5067 43.0253 59.265 41.3894 57.5541C37.8006 53.8009 31.961 53.8017 28.3722 57.5541L26.1642 59.8632C26.1616 59.8659 26.1591 59.8689 26.1565 59.8715L20.4751 53.9299L38.2856 21.6679H47.1535C48.0223 21.6679 48.8889 21.7161 49.7506 21.8097L46.826 24.8683C45.0875 26.6865 44.1301 29.104 44.1301 31.675C44.1301 34.2464 45.0875 36.6636 46.826 38.4817C48.6205 40.3582 50.9777 41.2966 53.3343 41.2966C55.6915 41.2966 58.0486 40.3585 59.8429 38.4817L66.7499 31.2584L106.591 72.9241C108.185 74.5905 108.185 77.3026 106.591 78.9691ZM82.0096 39.6483C85.7328 36.8303 88.015 32.2827 88.015 27.342C88.015 25.8642 86.8693 24.6663 85.4565 24.6663C84.0436 24.6663 82.8979 25.8642 82.8979 27.342C82.8979 30.8373 81.1326 34.0254 78.3159 35.7857L68.571 25.5945C67.5717 24.5497 65.9544 24.5224 64.9551 25.5672L56.2247 34.6975C54.631 36.3642 52.0379 36.3639 50.4442 34.6975C49.6721 33.8902 49.2468 32.8168 49.2468 31.675C49.2468 30.5333 49.6721 29.4598 50.4442 28.6523L60.413 18.227C61.9859 16.582 64.0775 15.676 66.3024 15.676H92.5259L110.562 48.3468C110.605 48.4241 110.651 48.4977 110.697 48.5723L100.62 59.1108L82.0096 39.6483Z"
			fill="#84DCC6"
		/>
		<path
			d="M118.795 23.9087C119.468 23.9087 120.125 23.6224 120.604 23.1247C121.079 22.6243 121.354 21.9366 121.354 21.2329C121.354 20.5265 121.08 19.8388 120.604 19.3385C120.125 18.8408 119.468 18.5571 118.795 18.5571C118.119 18.5571 117.462 18.8408 116.986 19.3385C116.508 19.8388 116.236 20.5265 116.236 21.2329C116.236 21.9366 116.508 22.6243 116.986 23.1247C117.462 23.6226 118.119 23.9087 118.795 23.9087Z"
			fill="#84DCC6"
		/>
	</svg>
