<svg width="396" height="396" viewBox="0 0 396 396" fill="none" xmlns="http://www.w3.org/2000/svg">
<path d="M197.99 15.4688C193.719 15.4688 190.256 18.9314 190.256 23.2031V69.2172C190.256 73.4889 193.719 76.9516 197.99 76.9516C202.261 76.9516 205.725 73.4889 205.725 69.2172V23.2031C205.725 18.9314 202.261 15.4688 197.99 15.4688Z" fill="#84DCC6"/>
<path d="M154.164 81.5056L135.658 63.0166C132.635 59.9971 127.739 59.9994 124.72 63.0212C121.701 66.0431 121.703 70.9397 124.724 73.9592L143.23 92.4482C144.741 93.9572 146.719 94.7113 148.697 94.7113C150.678 94.7113 152.658 93.9549 154.168 92.4436C157.187 89.4217 157.185 84.5251 154.164 81.5056Z" fill="#84DCC6"/>
<path d="M271.274 63.035C268.252 60.0148 263.354 60.0179 260.335 63.0389L240.661 82.7283C237.642 85.7501 237.645 90.6468 240.666 93.6663C242.176 95.176 244.155 95.9301 246.133 95.9301C248.114 95.9301 250.094 95.1737 251.604 93.6624L271.278 73.973C274.297 70.9512 274.295 66.0545 271.274 63.035Z" fill="#84DCC6"/>
<path d="M345.34 219.656H339.098C344.192 213.016 347.229 204.72 347.229 195.724V184.808C347.229 163.082 329.554 145.406 307.828 145.406C286.102 145.406 268.427 163.082 268.427 184.808V193.293L210.24 135.106C207.011 131.877 202.262 130.841 198.001 132.38C193.741 130.841 188.99 131.877 185.76 135.106L127.575 193.293V184.808C127.573 163.082 109.898 145.406 88.1719 145.406C66.446 145.406 48.7706 163.082 48.7706 184.808V195.723C48.7706 204.72 51.8079 213.016 56.9018 219.656H50.6602C22.7259 219.656 0 242.382 0 270.317V372.797C0 377.069 3.46345 380.531 7.73438 380.531H40.4121C41.1855 380.531 41.9311 380.415 42.6357 380.203C43.3403 380.415 44.0859 380.531 44.8594 380.531H131.484C135.755 380.531 139.219 377.069 139.219 372.797V346.5C139.219 342.228 135.755 338.766 131.484 338.766C127.213 338.766 123.75 342.228 123.75 346.5V365.063H52.5938V276.932C52.5938 272.66 49.1303 269.197 44.8594 269.197C40.5885 269.197 37.125 272.66 37.125 276.932V365.063H15.4688V270.317C15.4688 250.912 31.2554 235.125 50.6602 235.125H104.414C106.543 235.125 108.47 234.264 109.868 232.874C109.874 232.868 109.878 232.865 109.884 232.86L190.22 152.524C189.693 168.586 184.697 184.057 175.689 197.436L125.069 272.612C124.21 273.889 123.751 275.393 123.751 276.932V285.399C123.751 289.67 127.214 293.133 131.485 293.133C135.756 293.133 139.22 289.67 139.22 285.399V279.292L188.521 206.074C192.287 200.48 195.446 194.569 198.001 188.433C200.555 194.569 203.713 200.48 207.481 206.074L256.781 279.292V372.797C256.781 377.069 260.245 380.531 264.516 380.531H351.141C351.914 380.531 352.66 380.415 353.364 380.203C354.069 380.415 354.814 380.531 355.588 380.531H388.266C392.537 380.531 396 377.069 396 372.797V270.317C396 242.382 373.274 219.656 345.34 219.656ZM112.104 195.723C112.104 208.92 101.369 219.656 88.1719 219.656C74.9747 219.656 64.2394 208.92 64.2394 195.724V184.808C64.2394 171.611 74.9755 160.875 88.1719 160.875C101.368 160.875 112.104 171.611 112.104 184.808V195.723ZM283.896 184.808C283.896 171.611 294.632 160.875 307.828 160.875C321.025 160.875 331.761 171.611 331.761 184.808V195.723C331.761 208.92 321.025 219.656 307.828 219.656C294.631 219.656 283.896 208.92 283.896 195.724V184.808ZM380.531 365.063H358.875V307.828C358.875 303.557 355.412 300.094 351.141 300.094C346.87 300.094 343.406 303.557 343.406 307.828V365.063H272.25V276.932C272.25 275.393 271.791 273.888 270.931 272.612L220.311 197.436C211.304 184.058 206.307 168.587 205.781 152.524L286.117 232.86C286.219 232.963 286.315 233.048 286.408 233.125C287.779 234.365 289.592 235.127 291.586 235.127H345.34C364.745 235.127 380.531 250.913 380.531 270.318V365.063Z" fill="#84DCC6"/>
<path d="M356.608 271.462C355.17 270.023 353.175 269.195 351.141 269.195C349.106 269.195 347.111 270.023 345.672 271.462C344.234 272.9 343.406 274.896 343.406 276.93C343.406 278.964 344.233 280.959 345.672 282.398C347.111 283.836 349.106 284.664 351.141 284.664C353.175 284.664 355.17 283.836 356.608 282.398C358.047 280.959 358.875 278.964 358.875 276.93C358.875 274.896 358.047 272.908 356.608 271.462Z" fill="#84DCC6"/>
<path d="M136.952 312.415C135.514 310.976 133.519 310.148 131.484 310.148C129.45 310.148 127.455 310.976 126.016 312.415C124.578 313.853 123.75 315.849 123.75 317.883C123.75 319.917 124.577 321.912 126.016 323.351C127.456 324.79 129.45 325.617 131.484 325.617C133.519 325.617 135.514 324.79 136.952 323.351C138.39 321.912 139.219 319.917 139.219 317.883C139.219 315.849 138.391 313.853 136.952 312.415Z" fill="#84DCC6"/>
</svg>
