<svg
				width="47"
				height="46"
				viewBox="0 0 47 46"
				fill="none"
				xmlns="http://www.w3.org/2000/svg"
			>
				<g clipPath="url(#clip0)">
					<path
						d="M30.0058 15.4531C29.2151 15.4531 28.6401 16.1 28.6401 16.8187C28.6401 17.6094 29.287 18.1844 30.0058 18.1844C30.7964 18.1844 31.3714 17.5375 31.3714 16.8187C31.4433 16.1 30.7964 15.4531 30.0058 15.4531Z"
						fill="white"
					/>
					<path
						d="M23.8963 16.6748C20.3744 16.6748 17.5713 19.4779 17.5713 22.9998C17.5713 26.5217 20.3744 29.3248 23.8963 29.3248C27.4182 29.3248 30.2213 26.5217 30.2213 22.9998C30.2213 19.4779 27.4182 16.6748 23.8963 16.6748ZM23.8963 26.4498C22.0275 26.4498 20.4463 24.8686 20.4463 22.9998C20.4463 21.1311 22.0275 19.5498 23.8963 19.5498C25.765 19.5498 27.3463 21.1311 27.3463 22.9998C27.3463 24.8686 25.765 26.4498 23.8963 26.4498Z"
						fill="white"
					/>
					<path
						d="M35.4684 15.3812C35.109 14.4469 34.6059 13.6563 33.8871 13.0094C33.1684 12.2906 32.4496 11.7875 31.5152 11.4281C30.5809 11.0687 29.6465 10.8531 28.4246 10.8531C27.2027 10.7813 26.8434 10.7812 23.8965 10.7812C20.9496 10.7812 20.5902 10.7813 19.3684 10.8531C18.1465 10.925 17.2121 11.0687 16.2777 11.4281C15.3434 11.7875 14.5527 12.2906 13.9059 13.0094C13.1871 13.7281 12.684 14.4469 12.3246 15.3812C11.9652 16.3156 11.7496 17.25 11.7496 18.4719C11.6777 19.6938 11.6777 20.0531 11.6777 23C11.6777 25.9469 11.6777 26.3062 11.7496 27.5281C11.8215 28.75 11.9652 29.6844 12.3246 30.6187C12.684 31.5531 13.1871 32.3438 13.9059 32.9906C14.6246 33.7094 15.3434 34.2125 16.2777 34.5719C17.2121 34.9312 18.1465 35.1469 19.3684 35.1469C20.5902 35.2188 20.9496 35.2188 23.8965 35.2188C26.8434 35.2188 27.2027 35.2188 28.4246 35.1469C29.6465 35.075 30.5809 34.9312 31.5152 34.5719C32.4496 34.2125 33.2402 33.7094 33.8871 32.9906C34.6059 32.2719 35.109 31.5531 35.4684 30.6187C35.8277 29.6844 36.0434 28.75 36.0434 27.5281C36.1152 26.3062 36.1152 25.9469 36.1152 23C36.1152 20.0531 36.1152 19.6938 36.0434 18.4719C35.9715 17.25 35.8277 16.3156 35.4684 15.3812ZM33.1684 27.3844C33.0965 28.5344 32.9527 29.1094 32.7371 29.5406C32.5215 30.1156 32.234 30.5469 31.8027 30.9781C31.3715 31.4094 30.9402 31.6969 30.3652 31.9125C29.934 32.0563 29.359 32.2719 28.209 32.3438C27.1309 32.3438 26.7715 32.3438 23.8965 32.3438C21.0215 32.3438 20.6621 32.3438 19.5121 32.2719C18.3621 32.2 17.7871 32.0562 17.3559 31.8406C16.7809 31.625 16.3496 31.3375 15.9184 30.9062C15.4871 30.475 15.1996 30.0438 14.984 29.4688C14.8402 29.0375 14.6246 28.4625 14.5527 27.3125C14.5527 26.2344 14.5527 25.875 14.5527 23C14.5527 20.125 14.5527 19.7656 14.6246 18.6156C14.6965 17.4656 14.8402 16.8906 15.0559 16.4594C15.2715 15.8844 15.559 15.4531 15.9902 15.0219C16.4215 14.5906 16.8527 14.3031 17.4277 14.0875C17.859 13.9438 18.434 13.7281 19.584 13.6562C20.6621 13.6562 21.0215 13.6562 23.8965 13.6562C26.7715 13.6562 27.1309 13.6563 28.2809 13.7281C29.4309 13.8 30.0059 13.9438 30.4371 14.1594C31.0121 14.375 31.4434 14.6625 31.8746 15.0938C32.3059 15.525 32.5934 15.9563 32.809 16.5312C32.9527 16.9625 33.1684 17.5375 33.2402 18.6875C33.2402 19.7656 33.2402 20.125 33.2402 23C33.2402 25.875 33.2402 26.2344 33.1684 27.3844Z"
						fill="white"
					/>
					<path
						d="M23.8965 0C11.2465 0 0.896484 10.35 0.896484 23C0.896484 35.65 11.2465 46 23.8965 46C36.5465 46 46.8965 35.65 46.8965 23C46.8965 10.35 36.5465 0 23.8965 0ZM23.8965 43.125C12.8277 43.125 3.77148 34.0687 3.77148 23C3.77148 11.9313 12.8277 2.875 23.8965 2.875C34.9652 2.875 44.0215 11.9313 44.0215 23C44.0215 34.0687 34.9652 43.125 23.8965 43.125Z"
						fill="white"
					/>
				</g>
				<defs>
					<clipPath id="clip0">
						<rect
							width="46"
							height="46"
							fill="white"
							transform="translate(0.896484)"
						/>
					</clipPath>
				</defs>
			</svg>
