<svg width="188" height="189" viewBox="0 0 188 189" fill="none" xmlns="http://www.w3.org/2000/svg">
<g clip-path="url(#clip0)">
<path d="M187.543 143.005C187.544 154.982 182.797 166.287 174.07 175.002C164.931 184.127 152.958 188.883 140.354 188.396C127.337 187.893 114.833 181.997 104.194 171.344L84.9594 152.164C82.0929 149.306 82.0834 144.67 84.9381 141.807C87.7925 138.945 92.4303 138.942 95.2964 141.8L114.542 160.99C130.074 176.541 150.289 178.033 163.712 164.63C177.136 151.226 175.67 131.011 160.148 115.472L133.821 89.1132C125.842 81.1239 116.73 76.7117 107.473 76.354C98.9876 76.0259 90.8863 79.2683 84.662 85.4836C82.5767 87.5662 80.8071 89.8711 79.4027 92.3347C77.4005 95.8466 72.9278 97.067 69.4132 95.0604C65.8982 93.0534 64.672 88.5796 66.6738 85.0685C68.7261 81.4687 71.2934 78.119 74.3041 75.1123C83.4425 65.9872 95.4161 61.2304 108.02 61.7174C121.036 62.2207 133.541 68.1172 144.18 78.7697L170.507 105.128C181.146 115.781 187.026 128.291 187.513 141.307C187.533 141.874 187.543 142.441 187.543 143.005V143.005ZM118.167 94.1859C114.652 92.1793 110.18 93.4 108.178 96.9116C106.773 99.3752 105.004 101.681 102.919 103.763C89.4958 117.166 69.2806 115.674 53.7593 100.133L27.433 73.7747C11.912 58.2341 10.446 38.0197 23.8689 24.6168C37.2917 11.2135 57.5069 12.7059 73.0388 28.2567L92.2842 47.4469C95.1503 50.3051 99.7881 50.3017 102.642 47.4395C105.497 44.5775 105.487 39.9406 102.621 37.0824L83.3864 17.9025C72.7469 7.25004 60.2429 1.35394 47.2266 0.850273C34.623 0.363266 22.649 5.12007 13.5106 14.2452C4.37185 23.3706 -0.40078 35.3427 0.0687195 47.9393C0.554699 60.955 6.43515 73.4654 17.0747 84.1175L43.401 110.477C54.0406 121.129 66.5445 127.025 79.5609 127.529C92.1645 128.016 104.139 123.259 113.277 114.134C116.288 111.128 118.854 107.778 120.907 104.178C121.559 103.035 121.868 101.79 121.868 100.561C121.868 98.0152 120.538 95.5395 118.167 94.1859V94.1859Z" fill="#84DCC6"/>
</g>
<defs>
<clipPath id="clip0">
<rect width="187.485" height="187.507" fill="white" transform="matrix(-4.37114e-08 -1 0.999999 0.00133545 0.0371094 188.241)"/>
</clipPath>
</defs>
</svg>
