<svg xmlns="http://www.w3.org/2000/svg" viewBox="0 0 390.82 237.21"><defs><style>.cls-1{fill:#00ab96;}.cls-2{fill:#e7332a;}.cls-3{fill:none;stroke:#000;stroke-miterlimit:10;stroke-width:1.57px;}</style></defs><title>Asset 1</title><g id="Layer_2" data-name="Layer 2"><g id="Layer_1-2" data-name="Layer 1"><path class="cls-1" d="M370.55,145.94A10.19,10.19,0,1,0,379,134.28a10.2,10.2,0,0,0-8.48,11.66"/><path class="cls-1" d="M372.83,114.33a8.67,8.67,0,1,0,7.22-9.91,8.66,8.66,0,0,0-7.22,9.91"/><path class="cls-1" d="M367.55,83.21a5.49,5.49,0,1,0,4.57-6.28,5.49,5.49,0,0,0-4.57,6.28"/><path class="cls-1" d="M359.52,175.83a10,10,0,1,0,8.32-11.43,10,10,0,0,0-8.32,11.43"/><path class="cls-1" d="M344.92,203.13a8.52,8.52,0,1,0,7.1-9.75,8.53,8.53,0,0,0-7.1,9.75"/><path class="cls-1" d="M337.3,232.69a5.34,5.34,0,1,0,4.45-6.12,5.33,5.33,0,0,0-4.45,6.12"/><path class="cls-2" d="M315.4,91.26a10.2,10.2,0,1,0-8.49,11.66,10.2,10.2,0,0,0,8.49-11.66"/><path class="cls-2" d="M313.12,122.87a8.67,8.67,0,1,0-7.22,9.91,8.68,8.68,0,0,0,7.22-9.91"/><path class="cls-2" d="M318.39,154a5.49,5.49,0,1,0-4.57,6.27,5.48,5.48,0,0,0,4.57-6.27"/><path class="cls-2" d="M326.43,61.37A10,10,0,1,0,318.1,72.8a10,10,0,0,0,8.33-11.43"/><path class="cls-2" d="M341,34.08a8.52,8.52,0,1,0-7.09,9.75A8.52,8.52,0,0,0,341,34.08"/><path class="cls-2" d="M348.65,4.52a5.35,5.35,0,1,0-4.45,6.11,5.35,5.35,0,0,0,4.45-6.11"/><polygon class="cls-1" points="373.48 85.59 346.86 86.41 372.47 79.12 373.48 85.59"/><polygon class="cls-2" points="304.82 89.61 336.4 88.03 305.83 96.08 304.82 89.61"/><polygon class="cls-2" points="304.08 120.98 342.75 118.64 305.02 127.46 304.08 120.98"/><polygon class="cls-1" points="381.87 116.22 342.75 118.64 380.92 109.75 381.87 116.22"/><polygon class="cls-2" points="312.37 151.7 338.98 150.88 313.37 158.16 312.37 151.7"/><polygon class="cls-1" points="381.11 147.59 348.2 149.26 380.13 141.12 381.11 147.59"/><polygon class="cls-1" points="370.14 177.52 340.45 178.69 369.16 171.04 370.14 177.52"/><polygon class="cls-1" points="353.83 205.04 331.59 205.09 352.85 198.57 353.83 205.04"/><polygon class="cls-2" points="316.07 59.87 345.77 58.8 317.03 66.34 316.07 59.87"/><polygon class="cls-2" points="332.49 32.41 354.73 32.44 333.44 38.88 332.49 32.41"/><polygon points="0 95.4 5.3 95.4 22.2 120.73 39.11 95.4 44.41 95.4 44.41 141.8 39.17 141.8 39.17 104.22 22.27 129.07 22 129.07 5.1 104.29 5.1 141.8 0 141.8 0 95.4"/><path d="M88.16,104.14h3.19l13.74,30.38h-3.66l-3.53-8H81.48l-3.58,8H74.41Zm8.4,19.35-6.85-15.38-6.9,15.38Z"/><path class="cls-3" d="M88.16,104.14h3.19l13.74,30.38h-3.66l-3.53-8H81.48l-3.58,8H74.41Zm8.4,19.35-6.85-15.38-6.9,15.38Z"/><path d="M134.62,95.4h19.75c5.3,0,9.48,1.53,12.13,4.12a10.28,10.28,0,0,1,3,7.42v.13c0,6-3.72,9.14-7.36,10.74,5.5,1.65,9.94,4.84,9.94,11.2v.13c0,8-6.7,12.66-16.84,12.66H134.62Zm29.56,12.27c0-4.58-3.64-7.56-10.27-7.56H139.79v16h13.72c6.3,0,10.67-2.84,10.67-8.28Zm-9.74,13.06H139.79V137.1h15.58c7,0,11.4-3.12,11.4-8.29v-.13c0-5-4.25-8-12.33-8"/><polygon points="199.58 95.4 233.12 95.4 233.12 100.17 204.81 100.17 204.81 116.02 230.14 116.02 230.14 120.79 204.81 120.79 204.81 137.03 233.45 137.03 233.45 141.8 199.58 141.8 199.58 95.4"/></g></g></svg>