<svg width="235" height="229" viewBox="0 0 235 229" fill="none" xmlns="http://www.w3.org/2000/svg">
<path d="M117.501 0C74.3092 0 39.168 34.244 39.168 76.3335C39.168 88.9687 42.4098 101.497 48.5726 112.609L113.218 226.54C114.078 228.059 115.718 229 117.501 229C119.285 229 120.925 228.059 121.785 226.54L186.454 112.571C192.593 101.497 195.835 88.9683 195.835 76.333C195.835 34.244 160.694 0 117.501 0ZM117.501 114.5C95.9053 114.5 78.3349 97.3782 78.3349 76.3335C78.3349 55.2887 95.9053 38.167 117.501 38.167C139.098 38.167 156.668 55.2887 156.668 76.3335C156.668 97.3782 139.098 114.5 117.501 114.5Z" fill="#FF686B"/>
</svg>
