<?xml version="1.0" encoding="UTF-8" standalone="no"?>
<!DOCTYPE svg PUBLIC "-//W3C//DTD SVG 1.1//EN" "http://www.w3.org/Graphics/SVG/1.1/DTD/svg11.dtd">
<svg width="100%" height="100%" viewBox="0 0 192 192" version="1.1" xmlns="http://www.w3.org/2000/svg" xmlns:xlink="http://www.w3.org/1999/xlink" xml:space="preserve" xmlns:serif="http://www.serif.com/" style="fill-rule:evenodd;clip-rule:evenodd;stroke-linejoin:round;stroke-miterlimit:2;">
    <rect id="favicon" x="0" y="0" width="192" height="192" style="fill:none;"/>
    <g id="favicon1" serif:id="favicon">
        <circle cx="96" cy="96" r="96" style="fill:white;"/>
        <g id="non-figurative">
            <g transform="matrix(0.791876,0,0,0.791876,-175.585,2.09062)">
                <path d="M370.55,145.94C371.333,150.867 375.625,154.531 380.614,154.531C386.204,154.531 390.804,149.931 390.804,144.341C390.804,138.751 386.204,134.151 380.614,134.151C380.073,134.151 379.534,134.194 379,134.28C373.477,135.155 369.651,140.416 370.52,145.94" style="fill:rgb(0,171,150);fill-rule:nonzero;"/>
            </g>
            <g transform="matrix(0.791876,0,0,0.791876,-175.585,2.09062)">
                <path d="M372.83,114.33C373.489,118.529 377.144,121.655 381.395,121.655C386.151,121.655 390.065,117.741 390.065,112.985C390.065,108.229 386.151,104.315 381.395,104.315C380.945,104.315 380.495,104.35 380.05,104.42C375.851,105.074 372.724,108.727 372.724,112.977C372.724,113.43 372.759,113.882 372.83,114.33" style="fill:rgb(0,171,150);fill-rule:nonzero;"/>
            </g>
            <g transform="matrix(0.791876,0,0,0.791876,-175.585,2.09062)">
                <path d="M367.55,83.21C367.97,85.867 370.283,87.843 372.973,87.843C375.984,87.843 378.463,85.365 378.463,82.353C378.463,79.342 375.984,76.863 372.973,76.863C372.687,76.863 372.402,76.886 372.12,76.93C369.462,77.348 367.483,79.662 367.483,82.353C367.483,82.64 367.505,82.927 367.55,83.21" style="fill:rgb(0,171,150);fill-rule:nonzero;"/>
            </g>
            <g transform="matrix(0.791876,0,0,0.791876,-175.585,2.09062)">
                <path d="M359.52,175.83C360.281,180.673 364.496,184.278 369.399,184.278C374.885,184.278 379.399,179.764 379.399,174.278C379.399,168.792 374.885,164.278 369.399,164.278C368.877,164.278 368.356,164.319 367.84,164.4C362.424,165.255 358.669,170.413 359.52,175.83" style="fill:rgb(0,171,150);fill-rule:nonzero;"/>
            </g>
            <g transform="matrix(0.791876,0,0,0.791876,-175.585,2.09062)">
                <path d="M344.92,203.13C345.572,207.252 349.162,210.318 353.335,210.318C358.009,210.318 361.855,206.472 361.855,201.798C361.855,197.124 358.009,193.278 353.335,193.278C352.895,193.278 352.455,193.312 352.02,193.38C347.399,194.108 344.194,198.508 344.92,203.13" style="fill:rgb(0,171,150);fill-rule:nonzero;"/>
            </g>
            <g transform="matrix(0.791876,0,0,0.791876,-175.585,2.09062)">
                <path d="M337.3,232.69C337.713,235.269 339.961,237.186 342.573,237.186C345.502,237.186 347.913,234.776 347.913,231.846C347.913,228.917 345.502,226.506 342.573,226.506C342.297,226.506 342.022,226.528 341.75,226.57C339.162,226.969 337.231,229.219 337.231,231.838C337.231,232.123 337.254,232.408 337.3,232.69" style="fill:rgb(0,171,150);fill-rule:nonzero;"/>
            </g>
            <g transform="matrix(0.791876,0,0,0.791876,-175.585,2.09062)">
                <path d="M315.4,91.26C314.623,86.321 310.324,82.644 305.324,82.644C299.728,82.644 295.124,87.249 295.124,92.844C295.124,98.44 299.728,103.044 305.324,103.044C305.855,103.044 306.385,103.003 306.91,102.92C312.437,102.05 316.269,96.787 315.4,91.26" style="fill:rgb(231,51,42);fill-rule:nonzero;"/>
            </g>
            <g transform="matrix(0.791876,0,0,0.791876,-175.585,2.09062)">
                <path d="M313.12,122.87C312.461,118.671 308.806,115.545 304.555,115.545C299.799,115.545 295.885,119.459 295.885,124.215C295.885,128.971 299.799,132.885 304.555,132.885C305.005,132.885 305.455,132.85 305.9,132.78C310.596,132.037 313.852,127.567 313.12,122.87" style="fill:rgb(231,51,42);fill-rule:nonzero;"/>
            </g>
            <g transform="matrix(0.791876,0,0,0.791876,-175.585,2.09062)">
                <path d="M318.39,154C317.975,151.339 315.659,149.357 312.966,149.357C309.954,149.357 307.476,151.835 307.476,154.847C307.476,157.859 309.954,160.337 312.966,160.337C313.252,160.337 313.537,160.315 313.82,160.27C316.477,159.856 318.457,157.545 318.457,154.855C318.457,154.569 318.435,154.283 318.39,154" style="fill:rgb(231,51,42);fill-rule:nonzero;"/>
            </g>
            <g transform="matrix(0.791876,0,0,0.791876,-175.585,2.09062)">
                <path d="M326.43,61.37C325.67,56.526 321.454,52.921 316.551,52.921C311.065,52.921 306.551,57.435 306.551,62.921C306.551,68.407 311.065,72.921 316.551,72.921C317.07,72.921 317.588,72.88 318.1,72.8C322.944,72.04 326.551,67.824 326.551,62.921C326.551,62.401 326.511,61.883 326.43,61.37" style="fill:rgb(231,51,42);fill-rule:nonzero;"/>
            </g>
            <g transform="matrix(0.791876,0,0,0.791876,-175.585,2.09062)">
                <path d="M341,34.08C340.347,29.959 336.758,26.894 332.585,26.894C327.911,26.894 324.065,30.74 324.065,35.414C324.065,40.088 327.911,43.934 332.585,43.934C333.029,43.934 333.472,43.899 333.91,43.83C338.035,43.181 341.105,39.589 341.105,35.414C341.105,34.967 341.07,34.521 341,34.08" style="fill:rgb(231,51,42);fill-rule:nonzero;"/>
            </g>
            <g transform="matrix(0.791876,0,0,0.791876,-175.585,2.09062)">
                <path d="M348.65,4.52C348.245,1.927 345.989,-0.004 343.364,-0.004C340.429,-0.004 338.014,2.411 338.014,5.346C338.014,8.281 340.429,10.696 343.364,10.696C343.644,10.696 343.924,10.674 344.2,10.63C347.095,10.172 349.102,7.416 348.65,4.52" style="fill:rgb(231,51,42);fill-rule:nonzero;"/>
            </g>
            <g transform="matrix(0.791876,0,0,0.791876,-175.585,2.09062)">
                <path d="M373.48,85.59L346.86,86.41L372.47,79.12L373.48,85.59Z" style="fill:rgb(0,171,150);fill-rule:nonzero;"/>
            </g>
            <g transform="matrix(0.791876,0,0,0.791876,-175.585,2.09062)">
                <path d="M304.82,89.61L336.4,88.03L305.83,96.08L304.82,89.61Z" style="fill:rgb(231,51,42);fill-rule:nonzero;"/>
            </g>
            <g transform="matrix(0.791876,0,0,0.791876,-175.585,2.09062)">
                <path d="M304.08,120.98L342.75,118.64L305.02,127.46L304.08,120.98Z" style="fill:rgb(231,51,42);fill-rule:nonzero;"/>
            </g>
            <g transform="matrix(0.791876,0,0,0.791876,-175.585,2.09062)">
                <path d="M381.87,116.22L342.75,118.64L380.92,109.75L381.87,116.22Z" style="fill:rgb(0,171,150);fill-rule:nonzero;"/>
            </g>
            <g transform="matrix(0.791876,0,0,0.791876,-175.585,2.09062)">
                <path d="M312.37,151.7L338.98,150.88L313.37,158.16L312.37,151.7Z" style="fill:rgb(231,51,42);fill-rule:nonzero;"/>
            </g>
            <g transform="matrix(0.791876,0,0,0.791876,-175.585,2.09062)">
                <path d="M381.11,147.59L348.2,149.26L380.13,141.12L381.11,147.59Z" style="fill:rgb(0,171,150);fill-rule:nonzero;"/>
            </g>
            <g transform="matrix(0.791876,0,0,0.791876,-175.585,2.09062)">
                <path d="M370.14,177.52L340.45,178.69L369.16,171.04L370.14,177.52Z" style="fill:rgb(0,171,150);fill-rule:nonzero;"/>
            </g>
            <g transform="matrix(0.791876,0,0,0.791876,-175.585,2.09062)">
                <path d="M353.83,205.04L331.59,205.09L352.85,198.57L353.83,205.04Z" style="fill:rgb(0,171,150);fill-rule:nonzero;"/>
            </g>
            <g transform="matrix(0.791876,0,0,0.791876,-175.585,2.09062)">
                <path d="M316.07,59.87L345.77,58.8L317.03,66.34L316.07,59.87Z" style="fill:rgb(231,51,42);fill-rule:nonzero;"/>
            </g>
            <g transform="matrix(0.791876,0,0,0.791876,-175.585,2.09062)">
                <path d="M332.49,32.41L354.73,32.44L333.44,38.88L332.49,32.41Z" style="fill:rgb(231,51,42);fill-rule:nonzero;"/>
            </g>
        </g>
    </g>
</svg>
