<svg width="260" height="53" viewBox="0 0 260 53" fill="none" xmlns="http://www.w3.org/2000/svg">
<path d="M0 0.772217H5.88557L24.6528 28.8562L43.4311 0.772217H49.3167V52.2169H43.4977V10.5511L24.7305 38.1029H24.4307L5.66348 10.6288V52.2169H0V0.772217Z" fill="white"/>
<path d="M97.9004 10.4624H101.443L116.701 44.1454H112.637L108.717 35.2756H90.4824L86.5068 44.1454H82.6312L97.9004 10.4624ZM107.228 31.9162L99.6217 14.864L91.9593 31.9162H107.228Z" fill="white"/>
<path d="M97.9004 10.4624H101.443L116.701 44.1454H112.637L108.717 35.2756H90.4824L86.5068 44.1454H82.6312L97.9004 10.4624ZM107.228 31.9162L99.6217 14.864L91.9593 31.9162H107.228Z" stroke="white" stroke-width="1.57" stroke-miterlimit="10"/>
<path d="M149.494 0.772217H171.426C177.311 0.772217 181.953 2.46856 184.896 5.34015C185.974 6.41934 186.824 7.70346 187.396 9.11652C187.969 10.5296 188.251 12.0429 188.227 13.5669V13.711C188.227 20.3633 184.096 23.8447 180.054 25.6187C186.162 27.4481 191.092 30.9849 191.092 38.0364V38.1805C191.092 47.0503 183.652 52.2169 172.392 52.2169H149.494V0.772217ZM182.32 14.3762C182.32 9.29829 178.277 5.9943 170.915 5.9943H155.235V23.7339H170.471C177.467 23.7339 182.32 20.5851 182.32 14.5536V14.3762ZM171.503 28.8562H155.235V47.0059H172.536C180.31 47.0059 185.196 43.5467 185.196 37.8146V37.6705C185.196 32.1269 180.476 28.8007 171.503 28.8007" fill="white"/>
<path d="M221.631 0.772217H258.876V6.06082H227.439V23.6341H255.567V28.9227H227.439V46.9283H259.243V52.2169H221.631V0.772217Z" fill="white"/>
</svg>
